<?xml version="1.0" standalone="no"?>
<!DOCTYPE svg PUBLIC "-//W3C//DTD SVG 20010904//EN"
 "http://www.w3.org/TR/2001/REC-SVG-20010904/DTD/svg10.dtd">
<svg version="1.0" xmlns="http://www.w3.org/2000/svg"
 width="3178.000000pt" height="3178.000000pt" viewBox="0 0 3178.000000 3178.000000"
 preserveAspectRatio="xMidYMid meet">
<metadata>
Created by potrace 1.11, written by Peter Selinger 2001-2013
</metadata>
<g transform="translate(0.000000,3178.000000) scale(0.100000,-0.100000)"
fill="#000000" stroke="none">
<path d="M21525 21045 c-41 -14 -378 -122 -825 -265 -140 -45 -279 -89 -309
-98 l-53 -18 -30 -79 c-16 -44 -44 -125 -63 -180 -18 -55 -75 -219 -125 -365
-51 -146 -123 -355 -160 -465 -38 -110 -82 -238 -99 -285 -16 -47 -121 -348
-231 -670 -200 -580 -228 -661 -395 -1145 -191 -555 -241 -682 -327 -831 -145
-254 -299 -373 -500 -386 -37 -2 -38 -3 -38 -41 0 -21 4 -36 8 -33 38 23 1195
25 1405 2 25 -3 27 -1 27 34 0 35 -1 36 -37 36 -153 0 -320 34 -399 80 -84 50
-143 136 -162 240 -11 65 -8 202 7 274 6 30 13 64 15 75 14 74 74 272 191 630
15 44 28 87 30 95 3 8 37 116 78 240 l73 225 682 1 682 1 24 -81 c14 -45 61
-205 106 -356 44 -151 92 -313 106 -360 50 -170 64 -216 79 -270 37 -126 86
-327 92 -379 19 -173 -18 -287 -114 -354 -43 -29 -142 -58 -209 -60 l-45 -1 3
-36 c3 -30 6 -35 28 -33 316 21 2239 21 2507 0 25 -3 32 1 35 18 7 34 -5 50
-39 52 -55 3 -156 33 -203 60 -57 34 -129 101 -166 156 -16 23 -31 44 -34 47
-34 34 -84 173 -475 1335 -24 72 -137 405 -250 740 -114 336 -255 754 -314
930 -60 176 -161 475 -225 665 -64 190 -156 462 -204 604 -48 143 -92 261 -97
262 -6 1 -28 -4 -50 -11z m-1173 -842 c3 -16 23 -89 46 -163 22 -74 72 -243
111 -375 75 -251 102 -341 147 -490 15 -49 29 -94 30 -100 1 -5 41 -140 88
-300 48 -159 98 -328 112 -375 14 -47 30 -98 35 -114 5 -16 9 -33 9 -37 0 -5
-288 -9 -640 -9 -352 0 -640 2 -640 4 0 2 20 59 44 127 24 68 79 228 122 354
120 356 124 366 264 775 183 536 250 733 250 737 0 2 4 2 9 -1 5 -3 11 -18 13
-33z"/>
<path d="M2389 21046 c-2 -2 -43 -7 -90 -10 -47 -4 -94 -8 -105 -10 -10 -2
-41 -7 -69 -10 -425 -57 -892 -264 -1225 -544 -327 -273 -593 -660 -739 -1076
-32 -90 -79 -250 -88 -296 -2 -14 -9 -45 -14 -70 -6 -25 -12 -58 -15 -75 -4
-33 -14 -99 -20 -130 -26 -134 -25 -627 1 -775 2 -14 7 -43 10 -65 6 -46 7
-52 29 -155 39 -188 96 -350 186 -535 56 -115 195 -345 221 -365 3 -3 30 -34
60 -70 63 -77 177 -191 245 -246 27 -21 51 -41 54 -44 10 -11 114 -85 174
-124 275 -178 710 -327 1056 -362 36 -3 67 -8 70 -9 9 -6 283 -18 390 -18 116
0 427 12 456 17 11 2 55 7 98 11 43 4 88 9 100 11 12 2 41 6 66 9 25 3 56 7
70 10 14 3 41 7 60 10 19 3 42 8 50 10 8 2 31 7 50 10 41 6 136 27 275 60 184
44 405 84 556 100 30 4 69 8 87 11 38 5 254 15 379 17 l88 2 1 680 c0 374 4
709 8 745 43 394 204 618 454 633 37 2 41 4 44 35 2 17 -1 33 -7 33 -5 1 -585
2 -1287 3 l-1278 1 0 -35 0 -35 73 -3 c151 -5 273 -60 336 -152 49 -72 73
-141 89 -260 9 -68 9 -1377 0 -1445 -10 -76 -44 -170 -79 -221 -77 -112 -228
-167 -437 -158 -411 17 -674 322 -827 958 -19 78 -37 160 -40 181 -4 22 -8 47
-10 55 -3 8 -7 35 -10 60 -3 25 -8 56 -10 70 -2 14 -7 50 -10 80 -3 30 -7 66
-10 80 -4 24 -13 122 -21 220 -1 25 -6 97 -9 160 -4 63 -9 140 -11 170 -4 65
-4 797 0 885 6 119 18 301 21 335 2 19 6 64 10 100 7 79 14 137 20 170 3 14 7
47 10 74 5 43 22 144 40 241 62 322 201 625 351 766 80 75 191 136 281 154
101 20 150 25 243 24 524 -7 1029 -265 1346 -689 157 -209 277 -476 338 -752
6 -24 11 -28 41 -28 l35 0 -2 680 -3 680 -145 5 c-80 2 -172 7 -205 10 -150
13 -182 16 -205 20 -14 2 -47 7 -74 10 -44 5 -230 37 -296 50 -14 3 -74 14
-135 25 -60 12 -130 25 -155 30 -25 5 -65 12 -90 15 -25 4 -58 9 -75 12 -38 6
-62 9 -155 18 -41 4 -88 9 -105 11 -36 6 -511 14 -516 10z"/>
<path d="M9290 20884 c0 -32 2 -34 33 -35 271 -5 402 -106 454 -351 17 -78 18
-193 18 -1813 0 -951 -3 -1761 -7 -1800 -14 -152 -59 -306 -118 -410 -73 -127
-205 -211 -337 -217 -42 -1 -43 -2 -43 -38 l0 -36 48 2 c433 22 2419 21 2533
-1 16 -3 19 2 19 34 0 36 -2 38 -27 36 -56 -4 -191 23 -251 50 -120 54 -171
134 -218 340 -4 17 -8 416 -9 888 l-2 857 47 0 c26 0 83 -7 125 -16 196 -41
311 -142 374 -332 19 -54 44 -195 66 -367 3 -27 8 -63 10 -80 19 -128 35 -248
41 -290 3 -27 8 -58 10 -69 2 -10 6 -44 10 -75 83 -747 543 -1105 1419 -1103
162 1 326 13 440 33 33 6 73 13 90 15 71 9 263 57 340 85 130 47 155 62 155
90 0 34 -7 40 -38 28 -14 -6 -55 -10 -91 -11 -123 -1 -227 59 -302 176 -54 83
-67 122 -194 591 -151 555 -150 551 -231 722 -101 212 -291 398 -507 498 -130
60 -320 112 -476 130 -30 4 -62 8 -72 10 -29 6 -244 17 -348 19 -64 1 -96 6
-99 14 -2 7 5 13 15 13 10 1 27 3 38 4 11 1 43 5 70 8 66 8 118 16 185 28 30
6 69 13 85 15 108 18 359 90 460 132 336 140 557 324 682 567 79 156 113 303
113 495 1 444 -209 766 -634 969 -180 87 -432 162 -616 185 -45 5 -128 17
-160 22 -88 14 -294 19 -715 15 -797 -6 -1926 -6 -2162 1 l-223 7 0 -35z
m2430 -104 c133 -45 245 -152 319 -305 35 -71 73 -178 85 -239 6 -25 23 -120
31 -161 29 -166 24 -631 -10 -800 -58 -297 -131 -455 -274 -593 -90 -87 -225
-151 -351 -167 -120 -14 -128 -14 -133 -2 -6 16 -6 2280 0 2290 3 5 64 6 137
4 100 -4 146 -10 196 -27z"/>
<path d="M27722 20884 c2 -29 6 -34 28 -35 124 -2 236 -30 301 -75 36 -25 86
-81 106 -119 18 -34 45 -118 50 -155 2 -19 8 -49 13 -67 9 -36 6 -3529 -4
-3583 -32 -184 -58 -271 -110 -364 -76 -135 -204 -221 -342 -229 -34 -2 -39
-5 -40 -27 -2 -36 6 -51 25 -46 75 23 2220 24 2541 2 30 -2 31 -1 28 33 -3 33
-5 35 -43 37 -257 15 -378 101 -434 310 -23 86 -26 201 -26 1069 l0 900 225
-1 c145 0 245 -5 280 -13 71 -17 165 -48 215 -73 65 -33 180 -123 221 -175 22
-26 41 -50 44 -53 39 -39 122 -211 155 -321 22 -73 31 -114 51 -239 5 -33 12
-134 13 -191 1 -47 1 -47 36 -47 l35 0 0 1084 0 1084 -35 0 c-33 0 -35 -2 -36
-32 -7 -451 -254 -769 -667 -863 -106 -24 -145 -27 -393 -26 l-146 1 -1 1050
c0 782 3 1051 11 1058 7 5 35 13 62 16 28 4 73 10 100 14 28 4 124 7 215 6
678 -4 1185 -335 1404 -918 31 -80 82 -288 92 -368 6 -58 6 -58 40 -58 20 0
34 5 34 13 1 6 2 333 3 724 l2 713 -690 -7 c-954 -8 -2884 -9 -3148 -1 l-218
7 3 -35z"/>
<path d="M11888 14185 c-2 -1 -34 -5 -73 -8 -794 -68 -1472 -739 -1543 -1526
-40 -451 59 -843 298 -1183 64 -91 263 -302 349 -369 181 -143 398 -252 611
-309 82 -22 220 -47 295 -55 63 -5 351 -6 385 -1 14 2 52 7 85 10 56 6 72 8
135 21 14 2 36 6 50 9 109 18 303 87 431 152 151 78 314 196 305 221 -5 11
-162 261 -172 272 -2 2 -23 -12 -46 -31 -127 -104 -299 -196 -470 -252 -156
-51 -268 -68 -468 -71 -202 -3 -333 15 -490 67 -489 162 -874 616 -935 1103
-3 22 -7 51 -10 65 -7 32 -7 282 -1 301 3 8 7 41 10 74 18 190 124 442 260
620 219 285 529 476 876 541 100 18 351 24 462 11 283 -35 527 -131 741 -293
31 -24 61 -44 66 -44 5 0 49 60 98 134 l89 133 -60 49 c-231 185 -541 306
-896 349 -56 7 -376 16 -382 10z"/>
<path d="M15137 14184 c-1 -1 -32 -5 -69 -8 -64 -7 -84 -10 -153 -21 -16 -3
-32 -5 -35 -5 -8 0 -141 -38 -206 -59 -155 -49 -423 -202 -539 -306 -266 -239
-417 -446 -520 -713 -149 -386 -146 -861 6 -1246 86 -218 195 -380 379 -567
214 -218 403 -340 670 -435 80 -29 128 -42 261 -69 9 -2 38 -6 65 -9 27 -4 65
-9 84 -11 51 -7 287 -7 361 0 366 34 737 196 993 435 158 147 221 220 327 380
99 149 199 401 225 569 3 18 8 43 10 55 24 114 23 489 -1 576 -2 8 -7 31 -10
50 -13 80 -59 228 -101 327 -103 242 -273 467 -494 654 -267 226 -591 363
-940 395 -55 6 -308 12 -313 8z m278 -339 c203 -18 421 -92 588 -199 350 -225
594 -593 643 -971 2 -22 7 -50 10 -63 6 -29 5 -239 -1 -312 -45 -500 -414
-973 -900 -1153 -103 -38 -184 -58 -316 -76 -67 -9 -324 -7 -379 3 -170 31
-173 32 -249 57 -94 31 -213 89 -306 149 -210 137 -387 333 -492 545 -82 164
-115 275 -140 460 -12 88 -6 317 11 415 58 335 240 639 512 855 292 232 622
326 1019 290z"/>
<path d="M17802 14130 c-4 -3 -8 -756 -7 -1675 l0 -1670 168 -3 167 -2 0 1677
0 1678 -161 0 c-88 0 -163 -2 -167 -5z"/>
<path d="M19110 12458 l0 -1678 169 0 170 0 0 803 c0 441 0 823 1 848 l0 46
568 1 c312 0 583 1 602 1 l35 1 -1 138 c-1 75 -2 140 -3 144 0 4 -269 7 -597
6 -327 0 -598 3 -601 5 -4 4 -6 789 -3 1015 l0 32 670 0 670 0 0 158 0 157
-840 0 -840 0 0 -1677z"/>
<path d="M21319 14135 c-1 0 -2 -755 -3 -1677 l-1 -1678 167 0 168 0 0 848 0
849 578 1 c317 0 589 1 605 1 l27 1 0 145 0 144 -577 0 c-318 0 -590 0 -605 0
l-28 1 0 525 0 525 673 2 672 3 0 148 c0 82 -2 152 -5 156 -3 4 -1439 10
-1671 6z"/>
<path d="M23503 12845 c1 -709 5 -1299 9 -1310 3 -11 11 -40 18 -65 60 -224
271 -455 539 -590 293 -148 707 -194 1061 -118 317 67 624 232 777 417 46 56
129 202 137 244 2 6 6 19 9 27 3 8 8 31 11 50 3 19 9 53 12 75 9 55 11 2534 2
2548 -5 8 -58 12 -168 12 -137 0 -160 -2 -160 -15 -1 -8 -2 -568 -4 -1245 -1
-676 -5 -1240 -8 -1251 -30 -104 -56 -160 -107 -227 -93 -124 -328 -249 -575
-307 -114 -27 -157 -32 -266 -32 -308 0 -568 92 -764 272 -44 40 -115 137
-139 191 -52 114 -50 70 -53 1384 -1 671 -2 1222 -3 1225 0 3 -75 5 -166 5
l-165 0 3 -1290z"/>
<path d="M27079 14132 l-36 -3 -1 -1662 c0 -914 2 -1669 4 -1677 3 -13 29 -15
166 -15 l163 0 2 720 c1 396 2 729 2 741 1 21 4 21 262 21 189 0 264 -3 272
-12 7 -7 30 -34 52 -60 22 -27 45 -53 50 -59 6 -6 77 -92 160 -191 82 -99 157
-189 167 -200 9 -11 171 -204 359 -430 188 -225 364 -436 391 -467 l50 -58
230 0 229 0 -87 103 c-47 56 -108 127 -134 157 -26 30 -222 260 -435 510 -213
250 -404 474 -424 496 -20 23 -56 65 -81 95 -25 29 -63 73 -84 98 l-39 45 29
13 c16 7 35 12 41 13 7 0 51 20 97 44 274 142 456 393 500 690 35 238 -21 502
-145 682 -80 116 -233 250 -359 314 -89 45 -192 74 -308 86 -56 6 -1030 11
-1093 6z m1134 -346 c196 -66 355 -228 412 -419 38 -127 26 -302 -30 -424 -86
-189 -269 -331 -466 -360 -30 -5 -211 -8 -403 -8 l-349 0 1 600 c0 330 1 609
1 620 1 20 5 21 379 19 l377 -1 78 -27z"/>
<path d="M30101 14130 c-4 -3 -7 -758 -6 -1677 l0 -1673 837 0 838 0 1 28 c0
37 1 242 0 268 l-1 21 -647 1 c-357 0 -658 1 -670 1 l-23 1 0 688 0 689 604
-1 604 -1 -1 147 -1 146 -600 0 -601 1 -3 525 -2 526 670 0 670 0 1 43 c1 42
0 157 0 232 l-1 40 -831 0 c-457 0 -834 -2 -838 -5z"/>
<path d="M100 12633 c0 -107 3 -143 13 -144 6 0 2124 -1 4705 -2 l4692 -2 0
146 0 146 -4705 0 -4705 0 0 -144z"/>
</g>
</svg>
